<?xml version="1.0" encoding="UTF-8"?>
<svg width="128px" height="88px" viewBox="0 0 128 88" version="1.1" xmlns="http://www.w3.org/2000/svg" xmlns:xlink="http://www.w3.org/1999/xlink">
    <!-- Generator: Sketch 50.2 (55047) - http://www.bohemiancoding.com/sketch -->
    <title>0541-quotes-right</title>
    <desc>Created with Sketch.</desc>
    <defs></defs>
    <g id="Page-1" stroke="none" stroke-width="1" fill="none" fill-rule="evenodd" opacity="0.15">
        <g id="0541-quotes-right" fill="#000000" fill-rule="nonzero">
            <path d="M99.9000999,56 C84.4515485,56 71.9280719,43.464 71.9280719,28 C71.9280719,12.536 84.4515485,0 99.9000999,0 C115.348651,0 127.872128,12.536 127.872128,28 L128,32 C128,62.928 102.953047,88 72.0559441,88 L72.0559441,72 C82.7332667,72 92.7632368,67.84 100.315684,60.288 C101.77023,58.832 103.096903,57.288 104.287712,55.664 C102.857143,55.888 101.394605,56.008 99.9000999,56.008 L99.9000999,56 Z M27.972028,56 C12.5234765,56 0,43.464 0,28 C0,12.536 12.5234765,0 27.972028,0 C43.4205794,0 55.9440559,12.536 55.9440559,28 L56.0719281,32 C56.0719281,62.928 31.024975,88 0.127872128,88 L0.127872128,72 C10.8051948,72 20.8351648,67.84 28.3876124,60.288 C29.8421578,58.832 31.1688312,57.288 32.3596404,55.664 C30.9290709,55.888 29.4665335,56.008 27.972028,56.008 L27.972028,56 Z" id="Shape"></path>
        </g>
    </g>
</svg>