<?xml version="1.0" encoding="UTF-8"?>
<svg width="121px" height="83px" viewBox="0 0 121 83" version="1.1" xmlns="http://www.w3.org/2000/svg" xmlns:xlink="http://www.w3.org/1999/xlink">
    <!-- Generator: Sketch 50.2 (55047) - http://www.bohemiancoding.com/sketch -->
    <title>0540-quotes-left</title>
    <desc>Created with Sketch.</desc>
    <defs></defs>
    <g id="Page-1" stroke="none" stroke-width="1" fill="none" fill-rule="evenodd" opacity="0.15">
        <g id="0540-quotes-left" fill="#000000" fill-rule="nonzero">
            <path d="M26.4722835,30.1163635 C41.0260162,30.1163635 52.8241016,41.9144489 52.8241016,56.4681816 C52.8241016,71.0219143 41.0260162,82.8199997 26.4722835,82.8199997 C11.9185509,82.8199997 0.120465454,71.0219143 0.120465454,56.4681816 L1.38777878e-17,52.7036362 C1.38777878e-17,23.5961708 23.5961708,0 52.7036362,0 L52.7036362,15.0581818 C42.6447708,15.0581818 33.1957617,18.973309 26.0807708,26.0807708 C24.7104763,27.4510654 23.4606472,28.9041799 22.3388126,30.4325853 C23.6865199,30.2217708 25.0643435,30.1088344 26.4647544,30.1088344 L26.4722835,30.1163635 Z M94.2341015,30.1163635 C108.787834,30.1163635 120.58592,41.9144489 120.58592,56.4681816 C120.58592,71.0219143 108.787834,82.8199997 94.2341015,82.8199997 C79.6803688,82.8199997 67.8822834,71.0219143 67.8822834,56.4681816 L67.7618179,52.7036362 C67.7618179,23.5961708 91.3579888,0 120.465454,0 L120.465454,15.0581818 C110.406589,15.0581818 100.95758,18.973309 93.8425887,26.0807708 C92.4722942,27.4510654 91.2224651,28.9041799 90.1006306,30.4325853 C91.4483378,30.2217708 92.8261615,30.1088344 94.2341015,30.1088344 L94.2341015,30.1163635 Z" id="Shape"></path>
        </g>
    </g>
</svg>